<svg t="1618190786875" class="icon" viewBox="0 0 1024 1024" version="1.1" xmlns="http://www.w3.org/2000/svg" p-id="14076" width="32" height="32"><path d="M677.333333 444.117333c117.824 0 213.333333 77.653333 213.333334 173.44 0 52.906667-29.141333 100.288-75.093334 132.096a10.453333 10.453333 0 0 0-4.202666 11.328l10.026666 37.333334c3.029333 11.178667-2.922667 15.573333-13.184 9.813333l-46.272-26.112a15.445333 15.445333 0 0 0-11.946666-1.322667c-22.677333 6.677333-47.146667 10.304-72.661334 10.304-117.824 0-213.333333-77.653333-213.333333-173.44s95.509333-173.44 213.333333-173.44z m82.133334 104.746667c-15.914667 0-28.8 12.650667-28.8 28.266667s12.885333 28.266667 28.8 28.266666c15.914667 0 28.8-12.650667 28.8-28.266666s-12.885333-28.288-28.8-28.288z m-160 0c-15.914667 0-28.8 12.650667-28.8 28.266667s12.885333 28.266667 28.8 28.266666c15.914667 0 28.8-12.650667 28.8-28.266666s-12.885333-28.288-28.8-28.288z" fill="#47C284" p-id="14077"></path><path d="M425.536 234.666667c127.232 0 232.682667 81.450667 251.797333 187.925333a272.853333 272.853333 0 0 0-13.44-0.32c-128.810667 0-233.258667 90.752-233.258666 202.709333 0 18.986667 2.986667 37.376 8.618666 54.805334a287.68 287.68 0 0 1-99.626666-12.650667 19.733333 19.733333 0 0 0-16.234667 2.069333L268.8 702.656c-12.053333 7.402667-18.965333 1.856-15.36-12.309333l11.989333-46.933334a16.256 16.256 0 0 0-5.845333-16.981333C205.141333 585.578667 170.666667 524.992 170.666667 457.386667 170.666667 334.378667 284.778667 234.666667 425.536 234.666667z m70.570667 115.2a37.44 37.44 0 1 0 0 74.88 37.44 37.44 0 0 0 0-74.88z m-172.8 0a37.44 37.44 0 1 0 0 74.88 37.44 37.44 0 0 0 0-74.88z" fill="#47C284" p-id="14078"></path></svg>
